<?xml version="1.0" encoding="UTF-8"?>
<svg id="Capa_1" xmlns="http://www.w3.org/2000/svg" version="1.1" viewBox="0 0 440.47 528.59">
  <!-- Generator: Adobe Illustrator 29.8.3, SVG Export Plug-In . SVG Version: 2.1.1 Build 3)  -->
  <defs>
    <style>
      .st0 {
        fill: #0a0b12;
      }
    </style>
  </defs>
  <path class="st0" d="M427.39,90.01L229.18,1.92c-5.68-2.55-12.2-2.55-17.88,0L13.08,90.01c-7.93,3.52-13.08,11.41-13.08,20.13v132.14c0,235.17,213.32,285.29,215.48,285.78,1.54.35,3.17.53,4.76.53s3.22-.18,4.76-.53c2.2-.48,215.48-50.61,215.48-285.78V110.14c0-8.72-5.11-16.61-13.08-20.13ZM338.56,222.99l-130.66,130.66c-4.03,4.03-9.31,6.04-14.59,6.04s-10.56-2.01-14.59-6.04l-61.89-61.89c-8.06-8.06-8.06-21.11,0-29.17,8.06-8.06,21.11-8.06,29.17,0l47.31,47.3,116.07-116.07c8.06-8.06,21.11-8.06,29.17,0s8.06,21.11,0,29.17Z"/>
</svg>