<?xml version="1.0" encoding="UTF-8"?>
<svg id="Capa_1" xmlns="http://www.w3.org/2000/svg" version="1.1" viewBox="0 0 450.62 435.31">
  <!-- Generator: Adobe Illustrator 29.8.3, SVG Export Plug-In . SVG Version: 2.1.1 Build 3)  -->
  <defs>
    <style>
      .st0 {
        fill: #0a0b12;
        fill-rule: evenodd;
      }
    </style>
  </defs>
  <path class="st0" d="M174.82,53.79c66.7,0,120.78,54.4,120.78,121.02,0,22.56-6.33,44.54-18.36,64.09l-11.1,17.39-15.29,12.34c-21.96,17.69-48.09,26.99-76.03,26.99-66.67,0-121.06-54.04-121.06-120.81s54.39-121.02,121.06-121.02h0ZM174.82,0C78.41,0,0,78.43,0,174.81s78.41,174.6,174.82,174.6c41.74,0,79.87-14.43,109.92-38.76,1.24,2.35,2.41,4.8,4.53,6.89l109.04,108.78c5.72,5.98,13.83,8.98,21.64,8.98s15.62-3,21.65-8.98c12.04-12.02,12.04-31.59,0-43.61l-108.75-108.69c-3.01-3-6.32-5.09-10.21-6.68,17.08-27,26.72-58.54,26.72-92.54C349.35,78.43,271.25,0,174.82,0Z"/>
</svg>