<?xml version="1.0" encoding="UTF-8"?>
<svg id="Capa_1" xmlns="http://www.w3.org/2000/svg" version="1.1" viewBox="0 0 815.43 813.17">
  <!-- Generator: Adobe Illustrator 29.8.3, SVG Export Plug-In . SVG Version: 2.1.1 Build 3)  -->
  <defs>
    <style>
      .st0 {
        fill: #0a0b12;
      }
    </style>
  </defs>
  <path class="st0" d="M667.17,372.71c0,18.71-16.59,33.88-37.07,33.88s-37.07-15.17-37.07-33.88,16.59-33.88,37.07-33.88,37.07,15.17,37.07,33.88ZM481.85,338.82c-20.47,0-37.07,15.17-37.07,33.88s16.59,33.88,37.07,33.88,37.07-15.17,37.07-33.88-16.59-33.88-37.07-33.88ZM333.59,338.82c-20.47,0-37.07,15.17-37.07,33.88s16.59,33.88,37.07,33.88,37.07-15.17,37.07-33.88-16.59-33.88-37.07-33.88ZM185.33,338.82c-20.47,0-37.07,15.17-37.07,33.88s16.59,33.88,37.07,33.88,37.07-15.17,37.07-33.88-16.59-33.88-37.07-33.88ZM667.17,507.57c0,18.71-16.59,33.88-37.07,33.88s-37.07-15.17-37.07-33.88,16.59-33.88,37.07-33.88,37.07,15.17,37.07,33.88ZM481.85,473.68c-20.47,0-37.07,15.17-37.07,33.88s16.59,33.88,37.07,33.88,37.07-15.17,37.07-33.88-16.59-33.88-37.07-33.88ZM333.59,473.68c-20.47,0-37.07,15.17-37.07,33.88s16.59,33.88,37.07,33.88,37.07-15.17,37.07-33.88-16.59-33.88-37.07-33.88ZM185.33,473.68c-20.47,0-37.07,15.17-37.07,33.88s16.59,33.88,37.07,33.88,37.07-15.17,37.07-33.88-16.59-33.88-37.07-33.88ZM667.17,642.43c0,18.71-16.59,33.88-37.07,33.88s-37.07-15.17-37.07-33.88,16.59-33.88,37.07-33.88,37.07,15.17,37.07,33.88ZM481.85,608.55c-20.47,0-37.07,15.17-37.07,33.88s16.59,33.88,37.07,33.88,37.07-15.17,37.07-33.88-16.59-33.88-37.07-33.88ZM333.59,608.55c-20.47,0-37.07,15.17-37.07,33.88s16.59,33.88,37.07,33.88,37.07-15.17,37.07-33.88-16.59-33.88-37.07-33.88ZM185.33,608.55c-20.47,0-37.07,15.17-37.07,33.88s16.59,33.88,37.07,33.88,37.07-15.17,37.07-33.88-16.59-33.88-37.07-33.88ZM815.43,779.29V101.65c0-18.73-16.58-33.88-37.07-33.88h-74.13v-33.88c0-18.73-16.58-33.88-37.07-33.88s-37.07,15.15-37.07,33.88v33.88H185.33v-33.88c0-18.73-16.58-33.88-37.07-33.88s-37.07,15.15-37.07,33.88v33.88H37.07C16.58,67.76,0,82.92,0,101.65v677.65c0,18.73,16.58,33.88,37.07,33.88h741.3c20.49,0,37.07-15.15,37.07-33.88ZM74.13,271.06h667.17v474.35H74.13v-474.35Z"/>
</svg>