<?xml version="1.0" encoding="UTF-8"?>
<svg id="Capa_1" xmlns="http://www.w3.org/2000/svg" version="1.1" viewBox="0 0 754.45 754.45">
  <!-- Generator: Adobe Illustrator 29.8.3, SVG Export Plug-In . SVG Version: 2.1.1 Build 3)  -->
  <defs>
    <style>
      .st0 {
        fill: #0a0b12;
      }
    </style>
  </defs>
  <path class="st0" d="M597.27,754.45c-34.66,0-62.87-28.21-62.87-62.87s28.21-62.87,62.87-62.87,62.87,28.21,62.87,62.87-28.21,62.87-62.87,62.87ZM220.05,754.45c-34.67,0-62.87-28.21-62.87-62.87s28.2-62.87,62.87-62.87,62.87,28.21,62.87,62.87-28.2,62.87-62.87,62.87ZM660.14,565.83H220.05c-34.67,0-62.87-28.21-62.87-62.87v-31.44c0-6.2,1.84-12.28,5.28-17.44l53.19-79.75L94.32,107.35s-.02,0-.02-.03l-20.23-44.45H31.44C14.08,62.87,0,48.81,0,31.44S14.08,0,31.44,0h62.87c12.33,0,23.52,7.21,28.61,18.42l20.23,44.45h548.43c34.66,0,62.87,28.21,62.87,62.87,0,4.88-1.14,9.7-3.32,14.06l-125.74,251.48c-5.34,10.65-16.21,17.38-28.12,17.38h-328.96l-48.26,72.39v21.92h440.09c17.38,0,31.44,14.06,31.44,31.44s-14.06,31.44-31.44,31.44ZM723.01,125.74h.31-.31Z"/>
</svg>