<?xml version="1.0" encoding="UTF-8"?>
<svg id="Capa_1" xmlns="http://www.w3.org/2000/svg" version="1.1" viewBox="0 0 684.42 684.42">
  <!-- Generator: Adobe Illustrator 29.8.3, SVG Export Plug-In . SVG Version: 2.1.1 Build 3)  -->
  <defs>
    <style>
      .st0 {
        fill: #0a0b12;
      }
    </style>
  </defs>
  <path class="st0" d="M370.73,684.42H28.52C12.75,684.42,0,671.65,0,655.91s12.75-28.52,28.52-28.52h342.21c15.76,0,28.52,12.77,28.52,28.52s-12.75,28.52-28.52,28.52ZM291.1,464.54l-171.03-171.02c-11.11-11.12-29.36-11.12-40.47,0L8.34,364.77c-11.12,11.12-11.12,29.36,0,40.48l171.03,171.02c11.11,11.12,29.36,11.12,40.47,0l71.26-71.26c11.12-11.12,11.12-29.36,0-40.48ZM676.08,564.32L262.69,150.93c-11.12-11.12-29.37-11.12-40.48,0l-71.28,71.28c-11.12,11.12-11.12,29.37,0,40.48l413.4,413.4c11.12,11.12,29.37,11.12,40.48,0l71.28-71.28c11.12-11.12,11.12-29.36,0-40.48ZM576.27,179.36L405.25,8.34c-11.11-11.12-29.36-11.12-40.47,0l-71.26,71.26c-11.12,11.12-11.12,29.36,0,40.48l171.03,171.02c11.11,11.12,29.36,11.12,40.47,0l71.26-71.26c11.12-11.12,11.12-29.36,0-40.48Z"/>
</svg>