<?xml version="1.0" encoding="UTF-8"?>
<svg id="Capa_1" xmlns="http://www.w3.org/2000/svg" version="1.1" viewBox="0 0 698.51 695.72">
  <!-- Generator: Adobe Illustrator 29.8.3, SVG Export Plug-In . SVG Version: 2.1.1 Build 3)  -->
  <defs>
    <style>
      .st0 {
        fill: #414042;
        fill-rule: evenodd;
      }
    </style>
  </defs>
  <path class="st0" d="M438.94,349.26l241-241c24.76-24.76,24.76-64.92,0-89.68-24.76-24.76-64.92-24.76-89.68,0l-241,241L108.25,18.57c-24.76-24.76-64.92-24.76-89.68,0-24.76,24.76-24.76,64.92,0,89.68l241,241L21.37,587.46c-24.76,24.76-24.76,64.92,0,89.68h0c24.76,24.76,64.92,24.76,89.68,0l238.21-238.21,238.21,238.21c24.76,24.76,64.92,24.76,89.68,0s24.76-64.92,0-89.68l-238.21-238.21Z"/>
</svg>