<?xml version="1.0" encoding="UTF-8"?>
<svg id="Capa_1" xmlns="http://www.w3.org/2000/svg" version="1.1" viewBox="0 0 650.37 695.72">
  <!-- Generator: Adobe Illustrator 29.8.3, SVG Export Plug-In . SVG Version: 2.1.1 Build 3)  -->
  <path d="M650.37,302.53C650.37,118.76,504.78,0,325.18,0S0,118.76,0,302.53c0,7.11.23,14.26.66,21.44.23,3.8,2.97,6.95,6.7,7.75,18.39,3.94,34.69,11.64,47.23,22.13,3.48,2.91,4,8.05,1.22,11.63-9.22,11.86-22.02,22.09-37.32,29.68-3.59,1.78-5.51,5.8-4.48,9.67,16.47,61.43,46.7,120.92,86.62,169.94,2.42,2.98,6.5,3.98,10.09,2.63,13.28-5,26.78-7.38,39.61-7.02,4.74.13,8.55,3.95,8.69,8.69.36,12.98-2.08,26.66-7.2,40.09-1.38,3.62-.31,7.7,2.68,10.17,49.61,40.93,108.08,66.39,170.68,66.39s121.07-25.45,170.68-66.39c2.99-2.47,4.06-6.54,2.68-10.17-5.12-13.43-7.56-27.1-7.2-40.09.13-4.74,3.95-8.56,8.68-8.69,12.83-.36,26.33,2.02,39.61,7.02,3.59,1.35,7.67.34,10.09-2.63,39.91-49.01,70.15-108.51,86.62-169.94,1.04-3.87-.89-7.89-4.48-9.67-15.3-7.59-28.11-17.82-37.32-29.68-2.78-3.58-2.25-8.72,1.22-11.63,12.55-10.49,28.84-18.2,47.23-22.13,3.72-.8,6.47-3.95,6.7-7.75.44-7.18.67-14.33.67-21.44h0ZM325.18,350.6c36.32,0,65.76,20.6,65.76,46.01s-29.44,10.11-65.76,10.11-65.76,15.3-65.76-10.11c0-25.41,29.44-46.01,65.76-46.01ZM163.18,310.78c-38.05,0-68.9-11.1-68.9-44.91s30.85-61.21,68.9-61.21,68.9,27.41,68.9,61.21-30.85,44.91-68.9,44.91ZM325.18,549.02c-46.51,0-84.21-16.55-84.21-36.97s37.7-36.97,84.21-36.97,84.21,16.55,84.21,36.97c0,20.42-37.7,36.97-84.21,36.97h0ZM487.19,310.78c-38.05,0-68.9-11.1-68.9-44.91s30.85-61.21,68.9-61.21,68.9,27.41,68.9,61.21-30.85,44.91-68.9,44.91Z"/>
</svg>