<?xml version="1.0" encoding="UTF-8"?>
<svg id="Capa_1" xmlns="http://www.w3.org/2000/svg" version="1.1" viewBox="0 0 968.18 522.87">
  <!-- Generator: Adobe Illustrator 29.8.3, SVG Export Plug-In . SVG Version: 2.1.1 Build 3)  -->
  <defs>
    <style>
      .st0 {
        fill: #414042;
        fill-rule: evenodd;
      }
    </style>
  </defs>
  <path class="st0" d="M65.92,131.84h836.34c36.41,0,65.92-29.51,65.92-65.92S938.67,0,902.26,0H65.92C29.51,0,0,29.51,0,65.92s29.51,65.92,65.92,65.92Z"/>
  <path class="st0" d="M902.26,195.51H65.92C29.51,195.51,0,225.03,0,261.43s29.51,65.92,65.92,65.92h836.34c36.41,0,65.92-29.51,65.92-65.92s-29.51-65.92-65.92-65.92Z"/>
  <path class="st0" d="M902.26,391.03H65.92c-36.41,0-65.92,29.51-65.92,65.92s29.51,65.92,65.92,65.92h836.34c36.41,0,65.92-29.51,65.92-65.92s-29.51-65.92-65.92-65.92Z"/>
</svg>