<?xml version="1.0" encoding="UTF-8"?>
<svg id="Capa_1" xmlns="http://www.w3.org/2000/svg" version="1.1" viewBox="0 0 815.43 813.17">
  <!-- Generator: Adobe Illustrator 29.8.3, SVG Export Plug-In . SVG Version: 2.1.1 Build 3)  -->
  <path d="M584.37,236.43c10.54-10.38,13.15-39.58,28.1-39.58,18.07,0,18.07,42.96,36.13,42.96s18.17-42.96,36.33-42.96,18.07,42.96,36.13,42.96,18.17-42.96,36.33-42.96,18.07,42.96,36.13,42.96,18.17-42.96,36.23-42.96,18.07,42.96,36.23,42.96,18.07-42.96,36.13-42.96,18.07,42.96,36.23,42.96,18.17-42.96,36.23-42.96,18.17,42.96,36.23,42.96,18.17-42.96,36.23-42.96,18.17,42.96,36.23,42.96,18.07-42.96,36.23-42.96,18.07,42.96,36.23,42.96,18.07-42.96,36.23-42.96,18.17,42.96,36.23,42.96c4.22,0,7.43-2.21,9.94-5.71-14.05-31.41-29.71-53.08-39.04-62.55h-635.2c7.03,16.74,13.25,35.82,18.57,56.97.7,2.59,1.3,5.32,1.91,7.92Z"/>
  <path d="M1240.12,257.5c-18.39,0-18.39,42.86-36.87,42.86s-18.39-42.86-36.78-42.86-18.48,42.86-36.87,42.86-18.39-42.86-36.78-42.86-18.48,42.86-36.97,42.86-18.39-42.86-36.78-42.86-18.48,42.86-36.97,42.86-18.39-42.86-36.87-42.86-18.39,42.86-36.87,42.86-18.39-42.86-36.87-42.86-18.39,42.86-36.78,42.86-18.48-42.86-36.97-42.86-18.39,42.86-36.78,42.86-18.48-42.86-36.97-42.86-18.48,42.86-36.97,42.86-18.39-42.86-36.87-42.86-18.48,42.86-36.97,42.86c-5.2,0-8.92-3.36-11.98-8.22,2.51,10.18,4.55,21.19,6.13,32.77,1.58-.93,3.34-1.4,5.29-1.4,18.39,0,18.39,42.86,36.78,42.86s18.48-42.86,36.87-42.86,18.39,42.86,36.78,42.86,18.39-42.86,36.87-42.86,18.39,42.86,36.78,42.86,18.39-42.86,36.78-42.86,18.39,42.86,36.78,42.86,18.39-42.86,36.78-42.86,18.39,42.86,36.78,42.86,18.48-42.86,36.87-42.86,18.39,42.86,36.78,42.86,18.48-42.86,36.87-42.86,18.39,42.86,36.78,42.86,18.39-42.86,36.78-42.86,18.39,42.86,36.87,42.86,18.39-42.86,36.78-42.86,18.48,42.86,36.87,42.86,18.39-42.11,36.32-42.86c-1.39-8.96-2.97-17.55-4.74-25.58-11.89-9.15-14.21-40.43-29.91-40.43Z"/>
  <path d="M1240.12,384.01c-18.39,0-18.39,42.85-36.87,42.85s-18.39-42.85-36.78-42.85-18.48,42.85-36.87,42.85-18.39-42.85-36.78-42.85-18.48,42.85-36.97,42.85-18.39-42.85-36.78-42.85-18.48,42.85-36.97,42.85-18.39-42.85-36.87-42.85-18.39,42.85-36.87,42.85-18.39-42.85-36.87-42.85-18.39,42.85-36.78,42.85-18.48-42.85-36.97-42.85-18.39,42.85-36.78,42.85-18.48-42.85-36.97-42.85-18.48,42.85-36.97,42.85-18.39-42.85-36.87-42.85-18.48,42.85-36.97,42.85c-1.67,0-3.16-.37-4.55-.93-1.02,10.27-2.6,20.45-4.46,30.44,2.32-2.33,5.11-3.73,8.45-3.73,18.39,0,18.39,42.85,36.78,42.85s18.48-42.85,36.87-42.85,18.39,42.85,36.78,42.85,18.39-42.85,36.87-42.85,18.39,42.85,36.78,42.85,18.39-42.85,36.78-42.85,18.39,42.85,36.78,42.85,18.39-42.85,36.78-42.85,18.39,42.85,36.78,42.85,18.48-42.85,36.87-42.85,18.39,42.85,36.78,42.85,18.48-42.85,36.87-42.85,18.39,42.85,36.78,42.85,18.39-42.85,36.78-42.85,18.39,42.85,36.87,42.85,18.39-42.85,36.78-42.85,18.48,42.85,36.87,42.85c17.28,0,18.3-37.63,33.53-42.39,1.95-8.78,3.34-17.55,4.46-26.24-17.93-.93-18.11-42.85-36.32-42.85Z"/>
  <path d="M1229.81,513.24c-18.07,0-18.07,42.82-36.23,42.82s-18.07-42.82-36.23-42.82-18.17,42.82-36.23,42.82-18.07-42.82-36.23-42.82-18.17,42.82-36.33,42.82-18.07-42.82-36.23-42.82-18.17,42.82-36.33,42.82-18.07-42.82-36.33-42.82-18.07,42.82-36.23,42.82-18.07-42.82-36.33-42.82-18.07,42.82-36.13,42.82-18.17-42.82-36.43-42.82-18.07,42.82-36.13,42.82-18.17-42.82-36.43-42.82-18.17,42.82-36.33,42.82-18.07-42.82-36.33-42.82-18.17,42.82-36.33,42.82c-13.95,0-17.16-25.18-26.2-36.98-5.92,24.01-13.35,45.68-21.88,64.5h620.95c23.08-19.34,40.25-41.92,52.69-66.19-2.41-2.59-5.22-4.15-8.73-4.15Z"/>
  <path d="M557.55,228.58c-23.58-81.48-63.33-133.85-101.75-137.06-55.38,4.38-101.84,86.28-118.09,198.31,11.79-25.88,28.64-42.19,47.42-42.19,35.62,0,64.5,58.31,64.5,130.24s-28.88,130.24-64.5,130.24c-19.08,0-36.17-16.82-47.97-43.41,14.95,111.66,58.23,193.59,113.23,199.03,89.2-13.61,170.77-215.34,107.16-435.15Z"/>
  <path d="M1385.89,236.83c-19.83-81.5-53.36-133.93-85.82-137.04-25.56,2.47-48.89,28.16-66.97,69.3,66.38,82.93,75.52,190.77,55.21,279.14-12.64,55.42-36.93,103.17-65.8,131.98,17.88,53.73,43.45,88.25,73.09,91.75,75.13-13.63,143.95-215.3,90.3-435.13Z"/>
  <path d="M374.28,478.72c27.13,0,49.12-45.15,49.12-100.85s-21.99-100.85-49.12-100.85-49.12,45.15-49.12,100.85,21.99,100.85,49.12,100.85Z"/>
</svg>