<?xml version="1.0" encoding="UTF-8"?>
<svg id="Capa_1" xmlns="http://www.w3.org/2000/svg" version="1.1" viewBox="0 0 506.76 506.76">
  <!-- Generator: Adobe Illustrator 29.8.3, SVG Export Plug-In . SVG Version: 2.1.1 Build 3)  -->
  <defs>
    <style>
      .st0 {
        fill: #0a0b12;
      }
    </style>
  </defs>
  <path class="st0" d="M253.38,0C113.67,0,0,113.67,0,253.38s113.67,253.38,253.38,253.38,253.38-113.67,253.38-253.38S393.1,0,253.38,0ZM322.49,276.42h-46.07v46.07c0,12.72-10.3,23.03-23.03,23.03s-23.03-10.31-23.03-23.03v-46.07h-46.07c-12.73,0-23.03-10.31-23.03-23.03s10.3-23.03,23.03-23.03h46.07v-46.07c0-12.72,10.3-23.03,23.03-23.03s23.03,10.31,23.03,23.03v46.07h46.07c12.73,0,23.03,10.31,23.03,23.03s-10.3,23.03-23.03,23.03Z"/>
</svg>