<?xml version="1.0" encoding="UTF-8"?>
<svg id="Capa_1" xmlns="http://www.w3.org/2000/svg" version="1.1" viewBox="0 0 455.65 546.78">
  <!-- Generator: Adobe Illustrator 29.8.3, SVG Export Plug-In . SVG Version: 2.1.1 Build 3)  -->
  <defs>
    <style>
      .st0 {
        fill: #0a0b12;
      }
    </style>
  </defs>
  <path class="st0" d="M227.82,546.78c-1.66,0-3.32-.18-4.94-.55-2.24-.49-222.89-52.36-222.89-295.63V113.91c0-9,5.31-17.16,13.53-20.81L218.57,1.97c5.9-2.63,12.61-2.63,18.51,0l205.04,91.13c8.22,3.65,13.53,11.81,13.53,20.81v136.69c0,243.29-220.65,295.14-222.89,295.63-1.62.37-3.28.55-4.94.55ZM227.82,296.17c-64.94,0-113.91,29.38-113.91,68.35s48.97,68.35,113.91,68.35,113.91-29.38,113.91-68.35-48.97-68.35-113.91-68.35ZM227.82,113.91c-37.69,0-68.35,30.66-68.35,68.35s30.66,68.35,68.35,68.35,68.35-30.66,68.35-68.35-30.66-68.35-68.35-68.35Z"/>
</svg>