<?xml version="1.0" encoding="UTF-8"?>
<svg id="Capa_1" xmlns="http://www.w3.org/2000/svg" version="1.1" viewBox="0 0 807.13 881.29">
  <!-- Generator: Adobe Illustrator 29.8.3, SVG Export Plug-In . SVG Version: 2.1.1 Build 3)  -->
  <rect x="107.25" y="337.71" width="105.44" height="329.03" rx="15.2" ry="15.2"/>
  <rect x="594.44" y="337.71" width="105.44" height="329.03" rx="15.2" ry="15.2" transform="translate(1294.32 1004.45) rotate(180)"/>
  <rect x="350.85" y="336.8" width="105.44" height="329.03" rx="15.2" ry="15.2"/>
  <path d="M63.06,719.43h681.01c15.3,0,27.72,12.42,27.72,27.72v4.54c0,15.3-12.42,27.72-27.72,27.72H63.06c-15.3,0-27.72-12.42-27.72-27.72v-4.54c0-15.3,12.42-27.72,27.72-27.72Z"/>
  <rect x="0" y="822.17" width="807.13" height="59.12" rx="27.72" ry="27.72"/>
  <path d="M787.29,184.39L419.21,3.63c-9.87-4.85-21.42-4.85-31.29,0L19.85,184.39C7.7,190.35,0,202.71,0,216.25v31.4C0,267.25,15.89,283.14,35.49,283.14h736.15c19.6,0,35.49-15.89,35.49-35.49v-31.4c0-13.53-7.7-25.89-19.85-31.86ZM403.57,195.42c-29.74,0-53.85-24.11-53.85-53.85s24.11-53.85,53.85-53.85,53.85,24.11,53.85,53.85-24.11,53.85-53.85,53.85Z"/>
</svg>