<svg width="65" height="35" viewBox="0 0 65 35" fill="none" xmlns="http://www.w3.org/2000/svg">
<path d="M32.5342 34.6819L64.9745 7.27825H62.9201C59.9875 6.72046 57.5272 5.66563 55.6218 4.15241C50.9883 0.466011 44.8609 -0.873242 39.2249 0.568181C36.6955 1.21434 34.4174 2.38515 32.4873 3.97568C30.5626 2.39067 28.279 1.2171 25.7496 0.568181C20.1164 -0.873242 13.9862 0.468773 9.35269 4.15241C7.44736 5.66839 4.99252 6.72046 2.05445 7.27825H0L32.4403 34.6819V34.7592L32.4873 34.7205L32.5342 34.7592V34.6819ZM32.4873 6.06878C33.9425 7.49364 35.1161 9.21396 35.9307 11.1607C36.8336 13.3201 37.3776 16.0897 37.4245 18.644C34.4368 22.5927 32.7689 27.1765 32.4873 31.7217C32.2111 27.1765 30.5377 22.5927 27.55 18.644C27.5969 16.0897 28.1409 13.3201 29.0439 11.1607C29.8557 9.21672 31.032 7.49364 32.4873 6.06878ZM34.0861 31.3268C34.9918 20.5935 44.2147 9.78832 60.6309 8.89916L34.0861 31.3268ZM39.6143 2.07864C44.7725 0.761476 50.3946 1.99028 54.6416 5.3674C55.7185 6.22342 56.9528 6.94413 58.3224 7.52954C49.7871 8.47116 43.2593 12.0581 38.8963 16.8712C38.6865 14.6511 38.1563 12.4337 37.3748 10.5615C36.4967 8.45459 35.2265 6.59068 33.6608 5.03052C35.3756 3.65813 37.3859 2.64471 39.6115 2.07864H39.6143ZM10.333 5.3674C14.5799 1.98751 20.1993 0.755953 25.3602 2.07864C27.5803 2.64748 29.5961 3.66365 31.3109 5.03052C29.748 6.58792 28.4778 8.45183 27.5969 10.5615C26.8155 12.4337 26.2853 14.6483 26.0754 16.8712C21.7097 12.0581 15.1847 8.47116 6.65209 7.52954C8.02172 6.94965 9.25051 6.22618 10.333 5.3674ZM4.34636 8.89916C20.7626 9.79108 29.9855 20.5935 30.8912 31.3268L4.34636 8.89916Z" fill="black"/>
</svg>
