<svg width="206" height="76" viewBox="0 0 206 76" fill="none" xmlns="http://www.w3.org/2000/svg">
<g clip-path="url(#clip0_1011_3012)">
<path d="M4.1862 49.4281L23.372 49.4667H23.4494V47.8237H0V75.5062H23.4494V73.9792H4.1862V62.8399L21.163 62.8786H21.2375V60.6474H4.1862V49.4281Z" fill="black"/>
<path d="M55.5942 71.8446V75.5448H35.6187V47.8623H39.8352V74.3961L55.5942 71.8474V71.8446Z" fill="black"/>
<path d="M86.0132 69.0888L88.9733 75.462L88.9927 75.5034H93.6621L80.1426 47.5834L80.1232 47.542H79.0822L65.0435 75.3957L64.9883 75.5034H67.051L70.2293 69.0915L70.5607 68.4647H85.7288L86.0132 69.0915H86.0187L86.0132 69.0888ZM71.6707 66.2308L78.3808 52.7499L84.6629 66.2308H71.6707Z" fill="black"/>
<path d="M197.765 69.0888L200.725 75.462L200.744 75.5034H205.414L191.894 47.5834L191.875 47.542H190.834L176.795 75.3957L176.74 75.5034H178.803L181.981 69.0915L182.312 68.4647H197.48L197.765 69.0915H197.77L197.765 69.0888ZM183.42 66.2308L190.13 52.7499L196.412 66.2308H183.42Z" fill="black"/>
<path d="M127.508 47.8625H129.355V75.545H125.258L125.235 75.5174L106.218 51.7007V75.5035H104.332V47.821H108.19L108.214 47.8487L127.508 71.9552V47.8597V47.8625Z" fill="black"/>
<path d="M140.439 75.382L140.337 75.5062H168.876V73.7031H146.666L168.475 47.9425L168.577 47.8237H140.975L141.077 49.5827H162.367L140.442 75.382H140.439Z" fill="black"/>
<path d="M102.752 34.6826L135.193 7.27899H133.138C130.206 6.72119 127.745 5.66636 125.84 4.15314C121.207 0.466744 115.079 -0.872509 109.443 0.568914C106.914 1.21507 104.636 2.38588 102.706 3.97642C100.781 2.3914 98.4972 1.21783 95.9678 0.568914C90.3347 -0.872509 84.2045 0.469505 79.5709 4.15314C77.6656 5.66912 75.2108 6.72119 72.2727 7.27899H70.2183L102.659 34.6826V34.7599L102.706 34.7213L102.752 34.7599V34.6826ZM102.706 6.06952C104.161 7.49437 105.334 9.21469 106.149 11.1614C107.052 13.3208 107.596 16.0904 107.643 18.6447C104.655 22.5934 102.987 27.1773 102.706 31.7224C102.429 27.1773 100.756 22.5934 97.7682 18.6447C97.8152 16.0904 98.3592 13.3208 99.2621 11.1614C100.074 9.21745 101.25 7.49437 102.706 6.06952ZM104.304 31.3276C105.21 20.5942 114.433 9.78905 130.849 8.8999L104.304 31.3276ZM109.833 2.07937C114.991 0.762208 120.613 1.99101 124.86 5.36813C125.937 6.22415 127.171 6.94486 128.541 7.53027C120.005 8.47189 113.478 12.0589 109.115 16.8719C108.905 14.6518 108.375 12.4344 107.593 10.5622C106.715 8.45532 105.445 6.59141 103.879 5.03125C105.594 3.65886 107.604 2.64545 109.83 2.07937H109.833ZM80.5512 5.36813C84.7982 1.98825 90.4175 0.756685 95.5785 2.07937C97.7986 2.64821 99.8144 3.66438 101.529 5.03125C99.9663 6.58865 98.696 8.45256 97.8152 10.5622C97.0337 12.4344 96.5035 14.649 96.2937 16.8719C91.928 12.0589 85.4029 8.47189 76.8704 7.53027C78.24 6.95039 79.4688 6.22691 80.5512 5.36813ZM74.5646 8.8999C90.9808 9.79181 100.204 20.5942 101.109 31.3276L74.5646 8.8999Z" fill="black"/>
</g>
<defs>
<clipPath id="clip0_1011_3012">
<rect width="205.411" height="75.5449" fill="white"/>
</clipPath>
</defs>
</svg>
