<svg width="206" height="28" viewBox="0 0 206 28" fill="none" xmlns="http://www.w3.org/2000/svg">
<path d="M4.1862 1.88608L23.372 1.92474H23.4494V0.281738H0V27.9642H23.4494V26.4372H4.1862V15.2979L21.163 15.3366H21.2375V13.1054H4.1862V1.88608Z" fill="black"/>
<path d="M55.5942 24.3026V28.0028H35.6187V0.320312H39.8352V26.8541L55.5942 24.3054V24.3026Z" fill="black"/>
<path d="M86.0132 21.5468L88.9733 27.92L88.9927 27.9614H93.6621L80.1426 0.0414227L80.1232 0H79.0822L65.0435 27.8537L64.9883 27.9614H67.051L70.2293 21.5496L70.5607 20.9227H85.7288L86.0132 21.5496H86.0187L86.0132 21.5468ZM71.6707 18.6888L78.3808 5.2079L84.6629 18.6888H71.6707Z" fill="black"/>
<path d="M197.765 21.5468L200.725 27.92L200.744 27.9614H205.414L191.894 0.0414227L191.875 0H190.834L176.795 27.8537L176.74 27.9614H178.803L181.981 21.5496L182.312 20.9227H197.48L197.765 21.5496H197.77L197.765 21.5468ZM183.42 18.6888L190.13 5.2079L196.412 18.6888H183.42Z" fill="black"/>
<path d="M127.508 0.320475H129.355V28.003H125.258L125.235 27.9754L106.218 4.15875V27.9616H104.332V0.279053H108.19L108.214 0.306668L127.508 24.4132V0.317716V0.320475Z" fill="black"/>
<path d="M140.439 27.84L140.337 27.9642H168.876V26.1611H146.666L168.475 0.400474L168.577 0.281738H140.975L141.077 2.04071H162.367L140.442 27.84H140.439Z" fill="black"/>
</svg>
